<mxfile host="app.diagrams.net" modified="2023-07-09T15:29:54.436Z" agent="Mozilla/5.0 (Windows NT 10.0; Win64; x64) AppleWebKit/537.36 (KHTML, like Gecko) Chrome/114.0.0.0 Safari/537.36" etag="CGDRYXLcyiXeRqC0SU-f" version="21.6.1" type="device">
  <diagram name="Page-1" id="-fGwj037Vai0xNHH9A33">
    <mxGraphModel dx="1259" dy="708" grid="1" gridSize="10" guides="1" tooltips="1" connect="1" arrows="1" fold="1" page="1" pageScale="1" pageWidth="850" pageHeight="1100" math="0" shadow="0">
      <root>
        <mxCell id="0" />
        <mxCell id="1" parent="0" />
        <mxCell id="Eyn73XNKefov7jPOlvVQ-6" value="" style="rounded=0;whiteSpace=wrap;html=1;" vertex="1" parent="1">
          <mxGeometry x="930" width="280" height="480" as="geometry" />
        </mxCell>
        <mxCell id="Eyn73XNKefov7jPOlvVQ-5" value="" style="rounded=0;whiteSpace=wrap;html=1;" vertex="1" parent="1">
          <mxGeometry x="970" y="110" width="120" height="60" as="geometry" />
        </mxCell>
        <mxCell id="ko0dQocDYiBsRdd-zSY8-1" value="" style="rounded=0;whiteSpace=wrap;html=1;" parent="1" vertex="1">
          <mxGeometry width="880" height="940" as="geometry" />
        </mxCell>
        <mxCell id="BfAa0QSE-k-2syZu1tpu-3" value="&amp;lt;BodyContainer&amp;gt;" style="text;html=1;strokeColor=none;fillColor=none;align=center;verticalAlign=middle;whiteSpace=wrap;rounded=0;" parent="1" vertex="1">
          <mxGeometry x="365" y="10" width="150" height="30" as="geometry" />
        </mxCell>
        <mxCell id="BfAa0QSE-k-2syZu1tpu-11" value="" style="rounded=0;whiteSpace=wrap;html=1;" parent="1" vertex="1">
          <mxGeometry x="10" y="50" width="860" height="800" as="geometry" />
        </mxCell>
        <mxCell id="ko0dQocDYiBsRdd-zSY8-2" value="{variant images}" style="rounded=0;whiteSpace=wrap;html=1;fillColor=#f8cecc;strokeColor=#b85450;" parent="1" vertex="1">
          <mxGeometry x="25" y="90" width="420" height="750" as="geometry" />
        </mxCell>
        <mxCell id="ko0dQocDYiBsRdd-zSY8-3" value="" style="rounded=0;whiteSpace=wrap;html=1;fillColor=#f8cecc;strokeColor=#b85450;" parent="1" vertex="1">
          <mxGeometry x="455" y="90" width="400" height="750" as="geometry" />
        </mxCell>
        <mxCell id="ko0dQocDYiBsRdd-zSY8-7" value="" style="rounded=0;whiteSpace=wrap;html=1;fillColor=#d80073;fontColor=#ffffff;strokeColor=#A50040;" parent="1" vertex="1">
          <mxGeometry x="465" y="220" width="380" height="100" as="geometry" />
        </mxCell>
        <mxCell id="ko0dQocDYiBsRdd-zSY8-16" value="" style="rounded=0;whiteSpace=wrap;html=1;fillColor=#d80073;fontColor=#ffffff;strokeColor=#A50040;" parent="1" vertex="1">
          <mxGeometry x="465" y="640" width="380" height="80" as="geometry" />
        </mxCell>
        <mxCell id="ko0dQocDYiBsRdd-zSY8-17" value="DESCRIPTION" style="rounded=0;whiteSpace=wrap;html=1;fillColor=#fa6800;fontColor=#000000;strokeColor=#C73500;" parent="1" vertex="1">
          <mxGeometry x="475" y="650" width="130" height="20" as="geometry" />
        </mxCell>
        <mxCell id="ko0dQocDYiBsRdd-zSY8-18" value="{description}" style="rounded=0;whiteSpace=wrap;html=1;fillColor=#647687;fontColor=#ffffff;strokeColor=#314354;" parent="1" vertex="1">
          <mxGeometry x="475" y="680" width="360" height="30" as="geometry" />
        </mxCell>
        <mxCell id="ko0dQocDYiBsRdd-zSY8-25" value="" style="rounded=0;whiteSpace=wrap;html=1;fillColor=#d80073;fontColor=#ffffff;strokeColor=#A50040;" parent="1" vertex="1">
          <mxGeometry x="465" y="340" width="380" height="140" as="geometry" />
        </mxCell>
        <mxCell id="ko0dQocDYiBsRdd-zSY8-26" value="AVAILABLE VARIANTS" style="rounded=0;whiteSpace=wrap;html=1;fillColor=#fa6800;fontColor=#000000;strokeColor=#C73500;" parent="1" vertex="1">
          <mxGeometry x="475" y="350" width="130" height="20" as="geometry" />
        </mxCell>
        <mxCell id="ko0dQocDYiBsRdd-zSY8-30" value="" style="rounded=0;whiteSpace=wrap;html=1;" parent="1" vertex="1">
          <mxGeometry x="475" y="380" width="80" height="90" as="geometry" />
        </mxCell>
        <mxCell id="ko0dQocDYiBsRdd-zSY8-28" value="&lt;font style=&quot;font-size: 8px;&quot;&gt;{color name}&lt;/font&gt;" style="rounded=0;whiteSpace=wrap;html=1;fillColor=#647687;fontColor=#ffffff;strokeColor=#314354;" parent="1" vertex="1">
          <mxGeometry x="490" y="440" width="50" height="20" as="geometry" />
        </mxCell>
        <mxCell id="ko0dQocDYiBsRdd-zSY8-29" value="&lt;font style=&quot;font-size: 8px;&quot;&gt;{color image}&lt;/font&gt;" style="whiteSpace=wrap;html=1;aspect=fixed;fillColor=#647687;fontColor=#ffffff;strokeColor=#314354;" parent="1" vertex="1">
          <mxGeometry x="490" y="390" width="50" height="50" as="geometry" />
        </mxCell>
        <mxCell id="ko0dQocDYiBsRdd-zSY8-31" value="" style="rounded=0;whiteSpace=wrap;html=1;" parent="1" vertex="1">
          <mxGeometry x="565" y="380" width="80" height="90" as="geometry" />
        </mxCell>
        <mxCell id="ko0dQocDYiBsRdd-zSY8-34" value="" style="rounded=0;whiteSpace=wrap;html=1;" parent="1" vertex="1">
          <mxGeometry x="655" y="380" width="80" height="90" as="geometry" />
        </mxCell>
        <mxCell id="ko0dQocDYiBsRdd-zSY8-37" value="" style="rounded=0;whiteSpace=wrap;html=1;" parent="1" vertex="1">
          <mxGeometry x="745" y="380" width="80" height="90" as="geometry" />
        </mxCell>
        <mxCell id="ko0dQocDYiBsRdd-zSY8-40" value="&lt;font style=&quot;font-size: 8px;&quot;&gt;{color name}&lt;/font&gt;" style="rounded=0;whiteSpace=wrap;html=1;fillColor=#647687;fontColor=#ffffff;strokeColor=#314354;" parent="1" vertex="1">
          <mxGeometry x="580" y="440" width="50" height="20" as="geometry" />
        </mxCell>
        <mxCell id="ko0dQocDYiBsRdd-zSY8-41" value="&lt;font style=&quot;font-size: 8px;&quot;&gt;{color image}&lt;/font&gt;" style="whiteSpace=wrap;html=1;aspect=fixed;fillColor=#647687;fontColor=#ffffff;strokeColor=#314354;" parent="1" vertex="1">
          <mxGeometry x="580" y="390" width="50" height="50" as="geometry" />
        </mxCell>
        <mxCell id="ko0dQocDYiBsRdd-zSY8-42" value="&lt;font style=&quot;font-size: 8px;&quot;&gt;{color name}&lt;/font&gt;" style="rounded=0;whiteSpace=wrap;html=1;fillColor=#647687;fontColor=#ffffff;strokeColor=#314354;" parent="1" vertex="1">
          <mxGeometry x="670" y="440" width="50" height="20" as="geometry" />
        </mxCell>
        <mxCell id="ko0dQocDYiBsRdd-zSY8-43" value="&lt;font style=&quot;font-size: 8px;&quot;&gt;{color image}&lt;/font&gt;" style="whiteSpace=wrap;html=1;aspect=fixed;fillColor=#647687;fontColor=#ffffff;strokeColor=#314354;" parent="1" vertex="1">
          <mxGeometry x="670" y="390" width="50" height="50" as="geometry" />
        </mxCell>
        <mxCell id="ko0dQocDYiBsRdd-zSY8-44" value="&lt;font style=&quot;font-size: 8px;&quot;&gt;{color name}&lt;/font&gt;" style="rounded=0;whiteSpace=wrap;html=1;fillColor=#647687;fontColor=#ffffff;strokeColor=#314354;" parent="1" vertex="1">
          <mxGeometry x="760" y="440" width="50" height="20" as="geometry" />
        </mxCell>
        <mxCell id="ko0dQocDYiBsRdd-zSY8-45" value="&lt;font style=&quot;font-size: 8px;&quot;&gt;{color image}&lt;/font&gt;" style="whiteSpace=wrap;html=1;aspect=fixed;fillColor=#647687;fontColor=#ffffff;strokeColor=#314354;" parent="1" vertex="1">
          <mxGeometry x="760" y="390" width="50" height="50" as="geometry" />
        </mxCell>
        <mxCell id="ko0dQocDYiBsRdd-zSY8-46" value="" style="rounded=0;whiteSpace=wrap;html=1;fillColor=#d80073;fontColor=#ffffff;strokeColor=#A50040;" parent="1" vertex="1">
          <mxGeometry x="465" y="500" width="380" height="120" as="geometry" />
        </mxCell>
        <mxCell id="ko0dQocDYiBsRdd-zSY8-63" value="" style="rounded=0;whiteSpace=wrap;html=1;fillColor=#d80073;fontColor=#ffffff;strokeColor=#A50040;" parent="1" vertex="1">
          <mxGeometry x="35" y="120" width="190" height="150" as="geometry" />
        </mxCell>
        <mxCell id="ko0dQocDYiBsRdd-zSY8-64" value="" style="rounded=0;whiteSpace=wrap;html=1;fillColor=#d80073;fontColor=#ffffff;strokeColor=#A50040;" parent="1" vertex="1">
          <mxGeometry x="245" y="120" width="190" height="150" as="geometry" />
        </mxCell>
        <mxCell id="ko0dQocDYiBsRdd-zSY8-67" value="" style="rounded=0;whiteSpace=wrap;html=1;fillColor=#d80073;fontColor=#ffffff;strokeColor=#A50040;" parent="1" vertex="1">
          <mxGeometry x="465" y="120" width="380" height="80" as="geometry" />
        </mxCell>
        <mxCell id="ko0dQocDYiBsRdd-zSY8-4" value="{section} / {category} / {name}" style="rounded=0;whiteSpace=wrap;html=1;fillColor=#008a00;fontColor=#ffffff;strokeColor=#005700;" parent="1" vertex="1">
          <mxGeometry x="475" y="130" width="360" height="20" as="geometry" />
        </mxCell>
        <mxCell id="ko0dQocDYiBsRdd-zSY8-5" value="{name}" style="rounded=0;whiteSpace=wrap;html=1;fillColor=#60a917;fontColor=#ffffff;strokeColor=#2D7600;" parent="1" vertex="1">
          <mxGeometry x="475" y="150" width="360" height="20" as="geometry" />
        </mxCell>
        <mxCell id="ko0dQocDYiBsRdd-zSY8-6" value="{category}" style="rounded=0;whiteSpace=wrap;html=1;fillColor=#1ba1e2;fontColor=#ffffff;strokeColor=#006EAF;" parent="1" vertex="1">
          <mxGeometry x="475" y="170" width="100" height="20" as="geometry" />
        </mxCell>
        <mxCell id="ko0dQocDYiBsRdd-zSY8-78" value="" style="rounded=0;whiteSpace=wrap;html=1;fillColor=#d80073;fontColor=#ffffff;strokeColor=#A50040;" parent="1" vertex="1">
          <mxGeometry x="35" y="290" width="190" height="150" as="geometry" />
        </mxCell>
        <mxCell id="ko0dQocDYiBsRdd-zSY8-79" value="" style="rounded=0;whiteSpace=wrap;html=1;fillColor=#d80073;fontColor=#ffffff;strokeColor=#A50040;" parent="1" vertex="1">
          <mxGeometry x="245" y="290" width="190" height="150" as="geometry" />
        </mxCell>
        <mxCell id="ko0dQocDYiBsRdd-zSY8-80" value="" style="rounded=0;whiteSpace=wrap;html=1;fillColor=#d80073;fontColor=#ffffff;strokeColor=#A50040;" parent="1" vertex="1">
          <mxGeometry x="35" y="510" width="190" height="150" as="geometry" />
        </mxCell>
        <mxCell id="ko0dQocDYiBsRdd-zSY8-81" value="" style="rounded=0;whiteSpace=wrap;html=1;fillColor=#d80073;fontColor=#ffffff;strokeColor=#A50040;" parent="1" vertex="1">
          <mxGeometry x="245" y="510" width="190" height="150" as="geometry" />
        </mxCell>
        <mxCell id="ko0dQocDYiBsRdd-zSY8-82" value="" style="rounded=0;whiteSpace=wrap;html=1;fillColor=#d80073;fontColor=#ffffff;strokeColor=#A50040;" parent="1" vertex="1">
          <mxGeometry x="35" y="680" width="190" height="150" as="geometry" />
        </mxCell>
        <mxCell id="ko0dQocDYiBsRdd-zSY8-83" value="" style="rounded=0;whiteSpace=wrap;html=1;fillColor=#d80073;fontColor=#ffffff;strokeColor=#A50040;" parent="1" vertex="1">
          <mxGeometry x="245" y="680" width="190" height="150" as="geometry" />
        </mxCell>
        <mxCell id="ko0dQocDYiBsRdd-zSY8-87" value="" style="rounded=0;whiteSpace=wrap;html=1;fillColor=#76608a;fontColor=#ffffff;strokeColor=#432D57;" parent="1" vertex="1">
          <mxGeometry x="475" y="230" width="210" height="80" as="geometry" />
        </mxCell>
        <mxCell id="ko0dQocDYiBsRdd-zSY8-85" value="EGP {old price}" style="rounded=0;whiteSpace=wrap;html=1;fillColor=#e3c800;strokeColor=#B09500;fontColor=#000000;" parent="1" vertex="1">
          <mxGeometry x="585" y="240" width="90" height="40" as="geometry" />
        </mxCell>
        <mxCell id="ko0dQocDYiBsRdd-zSY8-86" value="EGP {new price}" style="rounded=0;whiteSpace=wrap;html=1;fillColor=#e3c800;strokeColor=#B09500;fontColor=#000000;" parent="1" vertex="1">
          <mxGeometry x="485" y="240" width="100" height="40" as="geometry" />
        </mxCell>
        <mxCell id="ko0dQocDYiBsRdd-zSY8-90" value="" style="rounded=0;whiteSpace=wrap;html=1;fillColor=#76608a;fontColor=#ffffff;strokeColor=#432D57;" parent="1" vertex="1">
          <mxGeometry x="695" y="230" width="140" height="80" as="geometry" />
        </mxCell>
        <mxCell id="ko0dQocDYiBsRdd-zSY8-8" value="&lt;font style=&quot;font-size: 10px;&quot;&gt;&amp;lt;star rating&amp;gt; {rating avg}&lt;/font&gt;" style="rounded=0;whiteSpace=wrap;html=1;fillColor=#6d8764;fontColor=#ffffff;strokeColor=#3A5431;" parent="1" vertex="1">
          <mxGeometry x="702.5" y="240" width="125" height="20" as="geometry" />
        </mxCell>
        <mxCell id="ko0dQocDYiBsRdd-zSY8-9" value="&lt;font style=&quot;font-size: 8px;&quot;&gt;See All {rating count} Ratings&lt;/font&gt;" style="rounded=0;whiteSpace=wrap;html=1;fillColor=#6d8764;fontColor=#ffffff;strokeColor=#3A5431;" parent="1" vertex="1">
          <mxGeometry x="702.5" y="280" width="125" height="20" as="geometry" />
        </mxCell>
        <mxCell id="BfAa0QSE-k-2syZu1tpu-1" value="&lt;font style=&quot;font-size: 11px;&quot;&gt;SAVE {discount}%!&lt;/font&gt;" style="rounded=0;whiteSpace=wrap;html=1;fillColor=#e3c800;strokeColor=#B09500;fontColor=#000000;" parent="1" vertex="1">
          <mxGeometry x="485" y="280" width="100" height="20" as="geometry" />
        </mxCell>
        <mxCell id="BfAa0QSE-k-2syZu1tpu-4" value="&amp;lt;ImagesGrid&amp;gt;" style="text;html=1;strokeColor=none;fillColor=none;align=center;verticalAlign=middle;whiteSpace=wrap;rounded=0;" parent="1" vertex="1">
          <mxGeometry x="160" y="90" width="150" height="30" as="geometry" />
        </mxCell>
        <mxCell id="BfAa0QSE-k-2syZu1tpu-5" value="&amp;lt;ProductDetail&amp;gt;" style="text;html=1;strokeColor=none;fillColor=none;align=center;verticalAlign=middle;whiteSpace=wrap;rounded=0;" parent="1" vertex="1">
          <mxGeometry x="580" y="90" width="150" height="30" as="geometry" />
        </mxCell>
        <mxCell id="BfAa0QSE-k-2syZu1tpu-6" value="&amp;lt;ProductSummary&amp;gt;" style="text;html=1;strokeColor=none;fillColor=none;align=center;verticalAlign=middle;whiteSpace=wrap;rounded=0;" parent="1" vertex="1">
          <mxGeometry x="625" y="170" width="150" height="30" as="geometry" />
        </mxCell>
        <mxCell id="BfAa0QSE-k-2syZu1tpu-9" value="&amp;lt;AvailableVariants&amp;gt;" style="text;html=1;strokeColor=none;fillColor=none;align=center;verticalAlign=middle;whiteSpace=wrap;rounded=0;" parent="1" vertex="1">
          <mxGeometry x="690" y="345" width="150" height="30" as="geometry" />
        </mxCell>
        <mxCell id="BfAa0QSE-k-2syZu1tpu-13" value="&amp;lt;ProductContainer&amp;gt;" style="text;html=1;strokeColor=none;fillColor=none;align=center;verticalAlign=middle;whiteSpace=wrap;rounded=0;" parent="1" vertex="1">
          <mxGeometry x="365" y="50" width="150" height="30" as="geometry" />
        </mxCell>
        <mxCell id="BfAa0QSE-k-2syZu1tpu-14" value="&amp;lt;ProductPrice&amp;gt;" style="text;html=1;strokeColor=none;fillColor=none;align=center;verticalAlign=middle;whiteSpace=wrap;rounded=0;" parent="1" vertex="1">
          <mxGeometry x="565" y="280" width="150" height="30" as="geometry" />
        </mxCell>
        <mxCell id="BfAa0QSE-k-2syZu1tpu-15" value="&amp;lt;ProductRating&amp;gt;" style="text;html=1;strokeColor=none;fillColor=none;align=center;verticalAlign=middle;whiteSpace=wrap;rounded=0;" parent="1" vertex="1">
          <mxGeometry x="690" y="255" width="150" height="30" as="geometry" />
        </mxCell>
        <mxCell id="BfAa0QSE-k-2syZu1tpu-20" value="" style="rounded=0;whiteSpace=wrap;html=1;fillColor=#76608a;fontColor=#ffffff;strokeColor=#432D57;" parent="1" vertex="1">
          <mxGeometry x="470" y="505" width="170" height="105" as="geometry" />
        </mxCell>
        <mxCell id="ko0dQocDYiBsRdd-zSY8-47" value="AVAILABLE SIZES" style="rounded=0;whiteSpace=wrap;html=1;fillColor=#fa6800;fontColor=#000000;strokeColor=#C73500;" parent="1" vertex="1">
          <mxGeometry x="475" y="510" width="130" height="20" as="geometry" />
        </mxCell>
        <mxCell id="ko0dQocDYiBsRdd-zSY8-54" value="" style="rounded=0;whiteSpace=wrap;html=1;" parent="1" vertex="1">
          <mxGeometry x="517.5" y="555" width="35" height="30" as="geometry" />
        </mxCell>
        <mxCell id="BfAa0QSE-k-2syZu1tpu-17" value="" style="rounded=0;whiteSpace=wrap;html=1;" parent="1" vertex="1">
          <mxGeometry x="477.5" y="555" width="35" height="30" as="geometry" />
        </mxCell>
        <mxCell id="BfAa0QSE-k-2syZu1tpu-18" value="" style="rounded=0;whiteSpace=wrap;html=1;" parent="1" vertex="1">
          <mxGeometry x="557.5" y="555" width="35" height="30" as="geometry" />
        </mxCell>
        <mxCell id="BfAa0QSE-k-2syZu1tpu-19" value="" style="rounded=0;whiteSpace=wrap;html=1;" parent="1" vertex="1">
          <mxGeometry x="597.5" y="555" width="35" height="30" as="geometry" />
        </mxCell>
        <mxCell id="BfAa0QSE-k-2syZu1tpu-21" value="" style="rounded=0;whiteSpace=wrap;html=1;fillColor=#76608a;fontColor=#ffffff;strokeColor=#432D57;" parent="1" vertex="1">
          <mxGeometry x="660" y="505" width="180" height="105" as="geometry" />
        </mxCell>
        <mxCell id="ko0dQocDYiBsRdd-zSY8-60" value="ADD TO CART" style="rounded=1;whiteSpace=wrap;html=1;fillColor=#f5f5f5;gradientColor=#b3b3b3;strokeColor=#666666;" parent="1" vertex="1">
          <mxGeometry x="670" y="555" width="160" height="30" as="geometry" />
        </mxCell>
        <mxCell id="ko0dQocDYiBsRdd-zSY8-61" value="[Quantity Selector]" style="shape=process;whiteSpace=wrap;html=1;backgroundOutline=1;" parent="1" vertex="1">
          <mxGeometry x="670" y="510" width="75" height="40" as="geometry" />
        </mxCell>
        <mxCell id="BfAa0QSE-k-2syZu1tpu-22" value="&lt;font style=&quot;font-size: 7px;&quot;&gt;Total: EGP {price sum}&lt;/font&gt;" style="rounded=0;whiteSpace=wrap;html=1;" parent="1" vertex="1">
          <mxGeometry x="750" y="510" width="80" height="40" as="geometry" />
        </mxCell>
        <mxCell id="BfAa0QSE-k-2syZu1tpu-10" value="&amp;lt;AvailableSizes&amp;gt;" style="text;html=1;strokeColor=none;fillColor=none;align=center;verticalAlign=middle;whiteSpace=wrap;rounded=0;" parent="1" vertex="1">
          <mxGeometry x="477.5" y="585" width="150" height="30" as="geometry" />
        </mxCell>
        <mxCell id="BfAa0QSE-k-2syZu1tpu-16" value="&amp;lt;AddToCart&amp;gt;" style="text;html=1;strokeColor=none;fillColor=none;align=center;verticalAlign=middle;whiteSpace=wrap;rounded=0;" parent="1" vertex="1">
          <mxGeometry x="670" y="585" width="150" height="30" as="geometry" />
        </mxCell>
        <mxCell id="Eyn73XNKefov7jPOlvVQ-1" value="" style="rounded=0;whiteSpace=wrap;html=1;" vertex="1" parent="1">
          <mxGeometry x="940" y="50" width="160" height="130" as="geometry" />
        </mxCell>
        <mxCell id="Eyn73XNKefov7jPOlvVQ-2" value="{star rating}" style="rounded=0;whiteSpace=wrap;html=1;" vertex="1" parent="1">
          <mxGeometry x="950" y="60" width="80" height="20" as="geometry" />
        </mxCell>
        <mxCell id="Eyn73XNKefov7jPOlvVQ-3" value="by {user name} at {date}" style="rounded=0;whiteSpace=wrap;html=1;" vertex="1" parent="1">
          <mxGeometry x="950" y="80" width="140" height="20" as="geometry" />
        </mxCell>
        <mxCell id="Eyn73XNKefov7jPOlvVQ-4" value="{review}" style="rounded=0;whiteSpace=wrap;html=1;" vertex="1" parent="1">
          <mxGeometry x="950" y="100" width="140" height="50" as="geometry" />
        </mxCell>
        <mxCell id="Eyn73XNKefov7jPOlvVQ-7" value="" style="rounded=0;whiteSpace=wrap;html=1;" vertex="1" parent="1">
          <mxGeometry x="940" y="195" width="160" height="130" as="geometry" />
        </mxCell>
        <mxCell id="Eyn73XNKefov7jPOlvVQ-8" value="{star rating}" style="rounded=0;whiteSpace=wrap;html=1;" vertex="1" parent="1">
          <mxGeometry x="950" y="205" width="80" height="20" as="geometry" />
        </mxCell>
        <mxCell id="Eyn73XNKefov7jPOlvVQ-9" value="by {user name} at {date}" style="rounded=0;whiteSpace=wrap;html=1;" vertex="1" parent="1">
          <mxGeometry x="950" y="225" width="140" height="20" as="geometry" />
        </mxCell>
        <mxCell id="Eyn73XNKefov7jPOlvVQ-10" value="{review}" style="rounded=0;whiteSpace=wrap;html=1;" vertex="1" parent="1">
          <mxGeometry x="950" y="245" width="140" height="50" as="geometry" />
        </mxCell>
        <mxCell id="Eyn73XNKefov7jPOlvVQ-11" value="" style="rounded=0;whiteSpace=wrap;html=1;" vertex="1" parent="1">
          <mxGeometry x="940" y="340" width="160" height="130" as="geometry" />
        </mxCell>
        <mxCell id="Eyn73XNKefov7jPOlvVQ-12" value="{star rating}" style="rounded=0;whiteSpace=wrap;html=1;" vertex="1" parent="1">
          <mxGeometry x="950" y="350" width="80" height="20" as="geometry" />
        </mxCell>
        <mxCell id="Eyn73XNKefov7jPOlvVQ-13" value="by {user name} at {date}" style="rounded=0;whiteSpace=wrap;html=1;" vertex="1" parent="1">
          <mxGeometry x="950" y="370" width="140" height="20" as="geometry" />
        </mxCell>
        <mxCell id="Eyn73XNKefov7jPOlvVQ-14" value="{review}" style="rounded=0;whiteSpace=wrap;html=1;" vertex="1" parent="1">
          <mxGeometry x="950" y="390" width="140" height="50" as="geometry" />
        </mxCell>
        <mxCell id="Eyn73XNKefov7jPOlvVQ-15" value="X" style="ellipse;whiteSpace=wrap;html=1;aspect=fixed;" vertex="1" parent="1">
          <mxGeometry x="1180" y="10" width="20" height="20" as="geometry" />
        </mxCell>
        <mxCell id="Eyn73XNKefov7jPOlvVQ-16" value="&amp;lt;Review&amp;gt;" style="text;html=1;strokeColor=none;fillColor=none;align=center;verticalAlign=middle;whiteSpace=wrap;rounded=0;" vertex="1" parent="1">
          <mxGeometry x="990" y="150" width="60" height="30" as="geometry" />
        </mxCell>
        <mxCell id="Eyn73XNKefov7jPOlvVQ-17" value="&amp;lt;Review&amp;gt;" style="text;html=1;strokeColor=none;fillColor=none;align=center;verticalAlign=middle;whiteSpace=wrap;rounded=0;" vertex="1" parent="1">
          <mxGeometry x="990" y="295" width="60" height="30" as="geometry" />
        </mxCell>
        <mxCell id="Eyn73XNKefov7jPOlvVQ-18" value="&amp;lt;Review&amp;gt;" style="text;html=1;strokeColor=none;fillColor=none;align=center;verticalAlign=middle;whiteSpace=wrap;rounded=0;" vertex="1" parent="1">
          <mxGeometry x="990" y="440" width="60" height="30" as="geometry" />
        </mxCell>
        <mxCell id="Eyn73XNKefov7jPOlvVQ-19" value="&amp;lt;ProductReviews&amp;gt;" style="text;html=1;strokeColor=none;fillColor=none;align=center;verticalAlign=middle;whiteSpace=wrap;rounded=0;" vertex="1" parent="1">
          <mxGeometry x="1040" y="10" width="60" height="30" as="geometry" />
        </mxCell>
      </root>
    </mxGraphModel>
  </diagram>
</mxfile>
